# xmcd
#
# Track frame offsets:
#	150
#	16098
#	28435
#	44379
#	62766
#	78191
#	93888
#	109420
#	124980
#	141924
#	157698
#	167386
#	181577
#	194310
#	207983
#	223891
#	240212
#	259778
#
# Disc length: 3642 seconds
#
# Revision: 2
# Processed by: cddbd v1.5.2PL0 Copyright (c) Steve Scherf et al.
# Submitted via: audiograbber 1.82.02
#
DISCID=ed0e3812
DTITLE=Various - Dec 11 Country Radio
DYEAR=2011
DGENRE=Country
TTITLE0=Zac Brown Band - Keep Me In Mind (PO Clean Edit)
TTITLE1=Billy Currington - Like My Dog
TTITLE2=Brad Paisley - Camouflage
TTITLE3=Farm - Home Sweet Home
TTITLE4=Eric Paslay - Never Really Wanted
TTITLE5=Kenny Chesney - Reality
TTITLE6=Lee Brice - A Woman Like You
TTITLE7=Wade Bowen - Saturday Night
TTITLE8=Scott McCreery - Trouble With Girls, The
TTITLE9=Jake Owen - Alone With You
TTITLE10=Burns and Poe - I Need A Job
TTITLE11=Trent Tomlinson - A Man Without A Woman
TTITLE12=Neal McCoy - A-OK
TTITLE13=Jackie Arredondo - Rockin' That Trailer
TTITLE14=Corey Smith - Maybe Next Year (PO Clean Edit)
TTITLE15=Katie Armiger - Scream
TTITLE16=John Colbert - When Country Is Not
TTITLE17=Levi Hart - Hillbilly Way
EXTD=Corrected Track List
EXTT0=
EXTT1=
EXTT2=
EXTT3=
EXTT4=
EXTT5=
EXTT6=
EXTT7=
EXTT8=
EXTT9=
EXTT10=
EXTT11=
EXTT12=
EXTT13=
EXTT14=
EXTT15=
EXTT16=
EXTT17=
PLAYORDER=
